# xmcd
#
# Track frame offsets:
#       150
#       17763
#       35179
#       59918
#       77067
#       93541
#       108709
#       124923
#       146509
#       164626
#       175883
#       194115
#
# Disc length: 2851 seconds
#
# Revision: 0
# Processed by: cddbd v1.5.2PL0 Copyright (c) Steve Scherf et al.
# Submitted via: WaveLab 6.10
#
DISCID=bc0b210c
DTITLE=Rudi Fajgl - Isuse, opet ja
DYEAR=2008
DGENRE=
TTITLE0=Isuse, opet ja
TTITLE1=Ledeno srce
TTITLE2=Moj zivot
TTITLE3=Boze moj
TTITLE4=Podizem pogled
TTITLE5=Dar ljubavi
TTITLE6=Isus krist je meni sve
TTITLE7=Davno na golgoti
TTITLE8=Ne propusti spasenje
TTITLE9=Covjeka znam
TTITLE10=On je spasitelj moje duse
TTITLE11=Bozji sud
EXTD=
EXTT0=
EXTT1=
EXTT2=
EXTT3=
EXTT4=
EXTT5=
EXTT6=
EXTT7=
EXTT8=
EXTT9=
EXTT10=
EXTT11=
PLAYORDER=
